<mxfile host="Electron" agent="Mozilla/5.0 (Windows NT 10.0; Win64; x64) AppleWebKit/537.36 (KHTML, like Gecko) draw.io/24.7.5 Chrome/126.0.6478.183 Electron/31.3.0 Safari/537.36" version="24.7.5">
  <diagram id="C5RBs43oDa-KdzZeNtuy" name="Page-1">
    <mxGraphModel dx="1038" dy="623" grid="1" gridSize="10" guides="1" tooltips="1" connect="1" arrows="1" fold="1" page="1" pageScale="1" pageWidth="1400" pageHeight="2000" math="0" shadow="0">
      <root>
        <mxCell id="WIyWlLk6GJQsqaUBKTNV-0" />
        <mxCell id="WIyWlLk6GJQsqaUBKTNV-1" parent="WIyWlLk6GJQsqaUBKTNV-0" />
        <mxCell id="tFIMrw9xUKh2zcq4Kfw1-0" value="BaseController" style="swimlane;fontStyle=1;align=center;verticalAlign=top;childLayout=stackLayout;horizontal=1;startSize=26;horizontalStack=0;resizeParent=1;resizeParentMax=0;resizeLast=0;collapsible=1;marginBottom=0;whiteSpace=wrap;html=1;fillColor=#e1d5e7;strokeColor=#9673a6;" parent="WIyWlLk6GJQsqaUBKTNV-1" vertex="1">
          <mxGeometry x="490" y="60" width="260" height="66" as="geometry" />
        </mxCell>
        <mxCell id="tFIMrw9xUKh2zcq4Kfw1-3" value="+ homePage(): void&lt;div&gt;+ pageNotFound(): void&lt;br&gt;&lt;/div&gt;" style="text;strokeColor=#9673a6;fillColor=#e1d5e7;align=left;verticalAlign=top;spacingLeft=4;spacingRight=4;overflow=hidden;rotatable=0;points=[[0,0.5],[1,0.5]];portConstraint=eastwest;whiteSpace=wrap;html=1;" parent="tFIMrw9xUKh2zcq4Kfw1-0" vertex="1">
          <mxGeometry y="26" width="260" height="40" as="geometry" />
        </mxCell>
        <mxCell id="tFIMrw9xUKh2zcq4Kfw1-4" value="BaseRepo" style="swimlane;fontStyle=1;align=center;verticalAlign=top;childLayout=stackLayout;horizontal=1;startSize=26;horizontalStack=0;resizeParent=1;resizeParentMax=0;resizeLast=0;collapsible=1;marginBottom=0;whiteSpace=wrap;html=1;fillColor=#e1d5e7;strokeColor=#9673a6;" parent="WIyWlLk6GJQsqaUBKTNV-1" vertex="1">
          <mxGeometry x="490" y="520" width="260" height="160" as="geometry" />
        </mxCell>
        <mxCell id="tFIMrw9xUKh2zcq4Kfw1-5" value="# pdo" style="text;strokeColor=#9673a6;fillColor=#e1d5e7;align=left;verticalAlign=top;spacingLeft=4;spacingRight=4;overflow=hidden;rotatable=0;points=[[0,0.5],[1,0.5]];portConstraint=eastwest;whiteSpace=wrap;html=1;" parent="tFIMrw9xUKh2zcq4Kfw1-4" vertex="1">
          <mxGeometry y="26" width="260" height="26" as="geometry" />
        </mxCell>
        <mxCell id="tFIMrw9xUKh2zcq4Kfw1-7" value="- connectToDatabase(): void&lt;div&gt;# create($table, $data): bool&lt;/div&gt;&lt;div&gt;# read($table, $id): array&lt;/div&gt;&lt;div&gt;# update($table, $id, $data): bool&lt;/div&gt;&lt;div&gt;# delete($table, $id): bool&lt;/div&gt;&lt;div&gt;# selectAll($table): array&lt;/div&gt;&lt;div&gt;&lt;br&gt;&lt;/div&gt;" style="text;strokeColor=#9673a6;fillColor=#e1d5e7;align=left;verticalAlign=top;spacingLeft=4;spacingRight=4;overflow=hidden;rotatable=0;points=[[0,0.5],[1,0.5]];portConstraint=eastwest;whiteSpace=wrap;html=1;" parent="tFIMrw9xUKh2zcq4Kfw1-4" vertex="1">
          <mxGeometry y="52" width="260" height="108" as="geometry" />
        </mxCell>
        <mxCell id="tFIMrw9xUKh2zcq4Kfw1-13" value="ContactController" style="swimlane;fontStyle=1;align=center;verticalAlign=top;childLayout=stackLayout;horizontal=1;startSize=26;horizontalStack=0;resizeParent=1;resizeParentMax=0;resizeLast=0;collapsible=1;marginBottom=0;whiteSpace=wrap;html=1;fillColor=#fff2cc;strokeColor=#d6b656;" parent="WIyWlLk6GJQsqaUBKTNV-1" vertex="1">
          <mxGeometry x="20" y="120" width="300" height="178" as="geometry" />
        </mxCell>
        <mxCell id="tFIMrw9xUKh2zcq4Kfw1-14" value="- contact&lt;div&gt;- contactView&lt;/div&gt;" style="text;strokeColor=#d6b656;fillColor=#fff2cc;align=left;verticalAlign=top;spacingLeft=4;spacingRight=4;overflow=hidden;rotatable=0;points=[[0,0.5],[1,0.5]];portConstraint=eastwest;whiteSpace=wrap;html=1;" parent="tFIMrw9xUKh2zcq4Kfw1-13" vertex="1">
          <mxGeometry y="26" width="300" height="44" as="geometry" />
        </mxCell>
        <mxCell id="tFIMrw9xUKh2zcq4Kfw1-16" value="+ renderContactForm(): void&lt;div&gt;+ submitContactForm(): void&lt;/div&gt;&lt;div&gt;- renderResult($result): void&lt;/div&gt;&lt;div&gt;+ handleContactDeleteRequest(): void&lt;/div&gt;&lt;div&gt;- getContactDataFromDb($id): array&lt;/div&gt;&lt;div&gt;- getContactDataFromPost(): array&lt;/div&gt;" style="text;strokeColor=#d6b656;fillColor=#fff2cc;align=left;verticalAlign=top;spacingLeft=4;spacingRight=4;overflow=hidden;rotatable=0;points=[[0,0.5],[1,0.5]];portConstraint=eastwest;whiteSpace=wrap;html=1;" parent="tFIMrw9xUKh2zcq4Kfw1-13" vertex="1">
          <mxGeometry y="70" width="300" height="108" as="geometry" />
        </mxCell>
        <mxCell id="tFIMrw9xUKh2zcq4Kfw1-17" value="Contact" style="swimlane;fontStyle=1;align=center;verticalAlign=top;childLayout=stackLayout;horizontal=1;startSize=26;horizontalStack=0;resizeParent=1;resizeParentMax=0;resizeLast=0;collapsible=1;marginBottom=0;whiteSpace=wrap;html=1;fillColor=#fff2cc;strokeColor=#d6b656;" parent="WIyWlLk6GJQsqaUBKTNV-1" vertex="1">
          <mxGeometry x="20" y="400" width="300" height="120" as="geometry" />
        </mxCell>
        <mxCell id="tFIMrw9xUKh2zcq4Kfw1-18" value="- contactRepo" style="text;strokeColor=#d6b656;fillColor=#fff2cc;align=left;verticalAlign=top;spacingLeft=4;spacingRight=4;overflow=hidden;rotatable=0;points=[[0,0.5],[1,0.5]];portConstraint=eastwest;whiteSpace=wrap;html=1;" parent="tFIMrw9xUKh2zcq4Kfw1-17" vertex="1">
          <mxGeometry y="26" width="300" height="26" as="geometry" />
        </mxCell>
        <mxCell id="tFIMrw9xUKh2zcq4Kfw1-20" value="+ processContactFrom($contactData, $id): bool&lt;div&gt;+ fetchContact($id): array&lt;/div&gt;&lt;div&gt;+ processContactDeleteRequest($id): bool&lt;/div&gt;" style="text;strokeColor=#d6b656;fillColor=#fff2cc;align=left;verticalAlign=top;spacingLeft=4;spacingRight=4;overflow=hidden;rotatable=0;points=[[0,0.5],[1,0.5]];portConstraint=eastwest;whiteSpace=wrap;html=1;" parent="tFIMrw9xUKh2zcq4Kfw1-17" vertex="1">
          <mxGeometry y="52" width="300" height="68" as="geometry" />
        </mxCell>
        <mxCell id="tFIMrw9xUKh2zcq4Kfw1-21" value="ContactRepo" style="swimlane;fontStyle=1;align=center;verticalAlign=top;childLayout=stackLayout;horizontal=1;startSize=26;horizontalStack=0;resizeParent=1;resizeParentMax=0;resizeLast=0;collapsible=1;marginBottom=0;whiteSpace=wrap;html=1;fillColor=#fff2cc;strokeColor=#d6b656;" parent="WIyWlLk6GJQsqaUBKTNV-1" vertex="1">
          <mxGeometry x="20" y="602" width="300" height="124" as="geometry" />
        </mxCell>
        <mxCell id="tFIMrw9xUKh2zcq4Kfw1-22" value="# pdo" style="text;strokeColor=#d6b656;fillColor=#fff2cc;align=left;verticalAlign=top;spacingLeft=4;spacingRight=4;overflow=hidden;rotatable=0;points=[[0,0.5],[1,0.5]];portConstraint=eastwest;whiteSpace=wrap;html=1;" parent="tFIMrw9xUKh2zcq4Kfw1-21" vertex="1">
          <mxGeometry y="26" width="300" height="26" as="geometry" />
        </mxCell>
        <mxCell id="tFIMrw9xUKh2zcq4Kfw1-24" value="+ createContact($contactData): bool&lt;div&gt;+ readContact($id): array&lt;/div&gt;&lt;div&gt;+ updateContact($id, $contactData): bool&lt;/div&gt;&lt;div&gt;+ deleteContact($id): bool&lt;/div&gt;" style="text;strokeColor=#d6b656;fillColor=#fff2cc;align=left;verticalAlign=top;spacingLeft=4;spacingRight=4;overflow=hidden;rotatable=0;points=[[0,0.5],[1,0.5]];portConstraint=eastwest;whiteSpace=wrap;html=1;" parent="tFIMrw9xUKh2zcq4Kfw1-21" vertex="1">
          <mxGeometry y="52" width="300" height="72" as="geometry" />
        </mxCell>
        <mxCell id="tFIMrw9xUKh2zcq4Kfw1-25" value="ContactView" style="swimlane;fontStyle=1;align=center;verticalAlign=top;childLayout=stackLayout;horizontal=1;startSize=26;horizontalStack=0;resizeParent=1;resizeParentMax=0;resizeLast=0;collapsible=1;marginBottom=0;whiteSpace=wrap;html=1;fillColor=#fff2cc;strokeColor=#d6b656;" parent="WIyWlLk6GJQsqaUBKTNV-1" vertex="1">
          <mxGeometry x="350" y="270" width="250" height="74" as="geometry" />
        </mxCell>
        <mxCell id="tFIMrw9xUKh2zcq4Kfw1-28" value="+ displayContactForm($contactData): void&lt;div&gt;+ displayResult($result): void&lt;/div&gt;" style="text;strokeColor=#d6b656;fillColor=#fff2cc;align=left;verticalAlign=top;spacingLeft=4;spacingRight=4;overflow=hidden;rotatable=0;points=[[0,0.5],[1,0.5]];portConstraint=eastwest;whiteSpace=wrap;html=1;" parent="tFIMrw9xUKh2zcq4Kfw1-25" vertex="1">
          <mxGeometry y="26" width="250" height="48" as="geometry" />
        </mxCell>
        <mxCell id="tFIMrw9xUKh2zcq4Kfw1-30" value="ContactListController" style="swimlane;fontStyle=1;align=center;verticalAlign=top;childLayout=stackLayout;horizontal=1;startSize=26;horizontalStack=0;resizeParent=1;resizeParentMax=0;resizeLast=0;collapsible=1;marginBottom=0;whiteSpace=wrap;html=1;fillColor=#dae8fc;strokeColor=#6c8ebf;" parent="WIyWlLk6GJQsqaUBKTNV-1" vertex="1">
          <mxGeometry x="910" y="120" width="240" height="158" as="geometry">
            <mxRectangle x="740" y="193" width="150" height="30" as="alternateBounds" />
          </mxGeometry>
        </mxCell>
        <mxCell id="tFIMrw9xUKh2zcq4Kfw1-31" value="- contactList&lt;div&gt;- contactListView&lt;/div&gt;" style="text;strokeColor=#6c8ebf;fillColor=#dae8fc;align=left;verticalAlign=top;spacingLeft=4;spacingRight=4;overflow=hidden;rotatable=0;points=[[0,0.5],[1,0.5]];portConstraint=eastwest;whiteSpace=wrap;html=1;" parent="tFIMrw9xUKh2zcq4Kfw1-30" vertex="1">
          <mxGeometry y="26" width="240" height="44" as="geometry" />
        </mxCell>
        <mxCell id="tFIMrw9xUKh2zcq4Kfw1-33" value="+ getAllContacts(): void&lt;div&gt;- renderAllContacts($contacts): void&lt;/div&gt;&lt;div&gt;+ getContactStats(): void&lt;/div&gt;&lt;div&gt;- renderContactStats($stats): void&lt;/div&gt;&lt;div&gt;+ exportContactsCsv(): void&lt;/div&gt;" style="text;strokeColor=#6c8ebf;fillColor=#dae8fc;align=left;verticalAlign=top;spacingLeft=4;spacingRight=4;overflow=hidden;rotatable=0;points=[[0,0.5],[1,0.5]];portConstraint=eastwest;whiteSpace=wrap;html=1;" parent="tFIMrw9xUKh2zcq4Kfw1-30" vertex="1">
          <mxGeometry y="70" width="240" height="88" as="geometry" />
        </mxCell>
        <mxCell id="tFIMrw9xUKh2zcq4Kfw1-38" value="ContactListRepo" style="swimlane;fontStyle=1;align=center;verticalAlign=top;childLayout=stackLayout;horizontal=1;startSize=26;horizontalStack=0;resizeParent=1;resizeParentMax=0;resizeLast=0;collapsible=1;marginBottom=0;whiteSpace=wrap;html=1;fillColor=#dae8fc;strokeColor=#6c8ebf;" parent="WIyWlLk6GJQsqaUBKTNV-1" vertex="1">
          <mxGeometry x="910" y="602" width="240" height="78" as="geometry" />
        </mxCell>
        <mxCell id="tFIMrw9xUKh2zcq4Kfw1-39" value="# pdo" style="text;strokeColor=#6c8ebf;fillColor=#dae8fc;align=left;verticalAlign=top;spacingLeft=4;spacingRight=4;overflow=hidden;rotatable=0;points=[[0,0.5],[1,0.5]];portConstraint=eastwest;whiteSpace=wrap;html=1;" parent="tFIMrw9xUKh2zcq4Kfw1-38" vertex="1">
          <mxGeometry y="26" width="240" height="26" as="geometry" />
        </mxCell>
        <mxCell id="tFIMrw9xUKh2zcq4Kfw1-41" value="+ selectAllContacts(): array" style="text;strokeColor=#6c8ebf;fillColor=#dae8fc;align=left;verticalAlign=top;spacingLeft=4;spacingRight=4;overflow=hidden;rotatable=0;points=[[0,0.5],[1,0.5]];portConstraint=eastwest;whiteSpace=wrap;html=1;" parent="tFIMrw9xUKh2zcq4Kfw1-38" vertex="1">
          <mxGeometry y="52" width="240" height="26" as="geometry" />
        </mxCell>
        <mxCell id="tFIMrw9xUKh2zcq4Kfw1-46" value="Extends" style="endArrow=block;endSize=16;endFill=0;html=1;rounded=0;" parent="WIyWlLk6GJQsqaUBKTNV-1" target="tFIMrw9xUKh2zcq4Kfw1-0" edge="1">
          <mxGeometry width="160" relative="1" as="geometry">
            <mxPoint x="320" y="136" as="sourcePoint" />
            <mxPoint x="440" y="112" as="targetPoint" />
          </mxGeometry>
        </mxCell>
        <mxCell id="tFIMrw9xUKh2zcq4Kfw1-47" value="Extends" style="endArrow=block;endSize=16;endFill=0;html=1;rounded=0;exitX=-0.005;exitY=0.124;exitDx=0;exitDy=0;exitPerimeter=0;" parent="WIyWlLk6GJQsqaUBKTNV-1" source="tFIMrw9xUKh2zcq4Kfw1-30" target="tFIMrw9xUKh2zcq4Kfw1-0" edge="1">
          <mxGeometry width="160" relative="1" as="geometry">
            <mxPoint x="420" y="510" as="sourcePoint" />
            <mxPoint x="360" y="120" as="targetPoint" />
          </mxGeometry>
        </mxCell>
        <mxCell id="tFIMrw9xUKh2zcq4Kfw1-50" value="" style="endArrow=open;html=1;endSize=12;startArrow=diamondThin;startSize=14;startFill=0;edgeStyle=orthogonalEdgeStyle;align=left;verticalAlign=bottom;rounded=0;" parent="WIyWlLk6GJQsqaUBKTNV-1" source="tFIMrw9xUKh2zcq4Kfw1-30" target="tFIMrw9xUKh2zcq4Kfw1-34" edge="1">
          <mxGeometry x="-1" y="3" relative="1" as="geometry">
            <mxPoint x="230" y="320" as="sourcePoint" />
            <mxPoint x="160" y="380" as="targetPoint" />
            <Array as="points" />
          </mxGeometry>
        </mxCell>
        <mxCell id="tFIMrw9xUKh2zcq4Kfw1-51" value="" style="endArrow=open;html=1;endSize=12;startArrow=diamondThin;startSize=14;startFill=0;edgeStyle=orthogonalEdgeStyle;align=left;verticalAlign=bottom;rounded=0;exitX=0.5;exitY=1;exitDx=0;exitDy=0;entryX=0.5;entryY=0;entryDx=0;entryDy=0;" parent="WIyWlLk6GJQsqaUBKTNV-1" source="tFIMrw9xUKh2zcq4Kfw1-13" target="tFIMrw9xUKh2zcq4Kfw1-17" edge="1">
          <mxGeometry x="-1" y="3" relative="1" as="geometry">
            <mxPoint x="420" y="380" as="sourcePoint" />
            <mxPoint x="580" y="380" as="targetPoint" />
          </mxGeometry>
        </mxCell>
        <mxCell id="tFIMrw9xUKh2zcq4Kfw1-52" value="" style="endArrow=open;html=1;endSize=12;startArrow=diamondThin;startSize=14;startFill=0;edgeStyle=orthogonalEdgeStyle;align=left;verticalAlign=bottom;rounded=0;entryX=0.5;entryY=0;entryDx=0;entryDy=0;" parent="WIyWlLk6GJQsqaUBKTNV-1" source="tFIMrw9xUKh2zcq4Kfw1-34" target="tFIMrw9xUKh2zcq4Kfw1-38" edge="1">
          <mxGeometry x="-1" y="3" relative="1" as="geometry">
            <mxPoint x="420" y="510" as="sourcePoint" />
            <mxPoint x="580" y="510" as="targetPoint" />
          </mxGeometry>
        </mxCell>
        <mxCell id="tFIMrw9xUKh2zcq4Kfw1-53" value="" style="endArrow=open;html=1;endSize=12;startArrow=diamondThin;startSize=14;startFill=0;edgeStyle=orthogonalEdgeStyle;align=left;verticalAlign=bottom;rounded=0;" parent="WIyWlLk6GJQsqaUBKTNV-1" source="tFIMrw9xUKh2zcq4Kfw1-17" target="tFIMrw9xUKh2zcq4Kfw1-21" edge="1">
          <mxGeometry x="-1" y="3" relative="1" as="geometry">
            <mxPoint x="420" y="510" as="sourcePoint" />
            <mxPoint x="580" y="510" as="targetPoint" />
          </mxGeometry>
        </mxCell>
        <mxCell id="tFIMrw9xUKh2zcq4Kfw1-54" value="Extends" style="endArrow=block;endSize=16;endFill=0;html=1;rounded=0;exitX=-0.005;exitY=0.156;exitDx=0;exitDy=0;exitPerimeter=0;" parent="WIyWlLk6GJQsqaUBKTNV-1" source="tFIMrw9xUKh2zcq4Kfw1-38" target="tFIMrw9xUKh2zcq4Kfw1-4" edge="1">
          <mxGeometry width="160" relative="1" as="geometry">
            <mxPoint x="160" y="670" as="sourcePoint" />
            <mxPoint x="580" y="510" as="targetPoint" />
          </mxGeometry>
        </mxCell>
        <mxCell id="tFIMrw9xUKh2zcq4Kfw1-55" value="Extends" style="endArrow=block;endSize=16;endFill=0;html=1;rounded=0;exitX=1.004;exitY=0.186;exitDx=0;exitDy=0;exitPerimeter=0;" parent="WIyWlLk6GJQsqaUBKTNV-1" source="tFIMrw9xUKh2zcq4Kfw1-21" target="tFIMrw9xUKh2zcq4Kfw1-4" edge="1">
          <mxGeometry width="160" relative="1" as="geometry">
            <mxPoint x="420" y="510" as="sourcePoint" />
            <mxPoint x="580" y="510" as="targetPoint" />
          </mxGeometry>
        </mxCell>
        <mxCell id="tFIMrw9xUKh2zcq4Kfw1-34" value="ContactList" style="swimlane;fontStyle=1;align=center;verticalAlign=top;childLayout=stackLayout;horizontal=1;startSize=26;horizontalStack=0;resizeParent=1;resizeParentMax=0;resizeLast=0;collapsible=1;marginBottom=0;whiteSpace=wrap;html=1;fillColor=#dae8fc;strokeColor=#6c8ebf;" parent="WIyWlLk6GJQsqaUBKTNV-1" vertex="1">
          <mxGeometry x="910" y="400" width="240" height="100" as="geometry" />
        </mxCell>
        <mxCell id="tFIMrw9xUKh2zcq4Kfw1-35" value="- contactListRepo" style="text;strokeColor=#6c8ebf;fillColor=#dae8fc;align=left;verticalAlign=top;spacingLeft=4;spacingRight=4;overflow=hidden;rotatable=0;points=[[0,0.5],[1,0.5]];portConstraint=eastwest;whiteSpace=wrap;html=1;" parent="tFIMrw9xUKh2zcq4Kfw1-34" vertex="1">
          <mxGeometry y="26" width="240" height="26" as="geometry" />
        </mxCell>
        <mxCell id="tFIMrw9xUKh2zcq4Kfw1-37" value="+ fetchAllContacts(): array&lt;div&gt;+ countContactGenders($contacts): array&lt;/div&gt;" style="text;strokeColor=#6c8ebf;fillColor=#dae8fc;align=left;verticalAlign=top;spacingLeft=4;spacingRight=4;overflow=hidden;rotatable=0;points=[[0,0.5],[1,0.5]];portConstraint=eastwest;whiteSpace=wrap;html=1;" parent="tFIMrw9xUKh2zcq4Kfw1-34" vertex="1">
          <mxGeometry y="52" width="240" height="48" as="geometry" />
        </mxCell>
        <mxCell id="tFIMrw9xUKh2zcq4Kfw1-42" value="ContactListView" style="swimlane;fontStyle=1;align=center;verticalAlign=top;childLayout=stackLayout;horizontal=1;startSize=26;horizontalStack=0;resizeParent=1;resizeParentMax=0;resizeLast=0;collapsible=1;marginBottom=0;whiteSpace=wrap;html=1;fillColor=#dae8fc;strokeColor=#6c8ebf;" parent="WIyWlLk6GJQsqaUBKTNV-1" vertex="1">
          <mxGeometry x="660" y="270" width="220" height="74" as="geometry" />
        </mxCell>
        <mxCell id="tFIMrw9xUKh2zcq4Kfw1-45" value="+ displayContactList($contacts): void&lt;div&gt;+ displayContactStats($stats): void&lt;/div&gt;" style="text;strokeColor=#6c8ebf;fillColor=#dae8fc;align=left;verticalAlign=top;spacingLeft=4;spacingRight=4;overflow=hidden;rotatable=0;points=[[0,0.5],[1,0.5]];portConstraint=eastwest;whiteSpace=wrap;html=1;" parent="tFIMrw9xUKh2zcq4Kfw1-42" vertex="1">
          <mxGeometry y="26" width="220" height="48" as="geometry" />
        </mxCell>
        <mxCell id="BIKRHAEgS_KkoJdKM_LC-7" value="" style="endArrow=open;html=1;endSize=12;startArrow=diamondThin;startSize=14;startFill=0;edgeStyle=orthogonalEdgeStyle;align=left;verticalAlign=bottom;rounded=0;exitX=1.001;exitY=0.106;exitDx=0;exitDy=0;exitPerimeter=0;entryX=0.5;entryY=0;entryDx=0;entryDy=0;" parent="WIyWlLk6GJQsqaUBKTNV-1" source="tFIMrw9xUKh2zcq4Kfw1-16" target="tFIMrw9xUKh2zcq4Kfw1-25" edge="1">
          <mxGeometry x="-1" y="3" relative="1" as="geometry">
            <mxPoint x="500" y="390" as="sourcePoint" />
            <mxPoint x="660" y="390" as="targetPoint" />
          </mxGeometry>
        </mxCell>
        <mxCell id="BIKRHAEgS_KkoJdKM_LC-8" value="" style="endArrow=open;html=1;endSize=12;startArrow=diamondThin;startSize=14;startFill=0;edgeStyle=orthogonalEdgeStyle;align=left;verticalAlign=bottom;rounded=0;entryX=0.5;entryY=0;entryDx=0;entryDy=0;exitX=0;exitY=0.109;exitDx=0;exitDy=0;exitPerimeter=0;" parent="WIyWlLk6GJQsqaUBKTNV-1" source="tFIMrw9xUKh2zcq4Kfw1-33" target="tFIMrw9xUKh2zcq4Kfw1-42" edge="1">
          <mxGeometry x="-1" y="3" relative="1" as="geometry">
            <mxPoint x="890" y="200" as="sourcePoint" />
            <mxPoint x="660" y="390" as="targetPoint" />
          </mxGeometry>
        </mxCell>
        <mxCell id="BIKRHAEgS_KkoJdKM_LC-9" value="WeatherController" style="swimlane;fontStyle=1;align=center;verticalAlign=top;childLayout=stackLayout;horizontal=1;startSize=26;horizontalStack=0;resizeParent=1;resizeParentMax=0;resizeLast=0;collapsible=1;marginBottom=0;whiteSpace=wrap;html=1;fillColor=#d5e8d4;strokeColor=#82b366;" parent="WIyWlLk6GJQsqaUBKTNV-1" vertex="1">
          <mxGeometry x="515" y="760" width="210" height="120" as="geometry" />
        </mxCell>
        <mxCell id="BIKRHAEgS_KkoJdKM_LC-10" value="- weather&lt;div&gt;- weatherView&lt;/div&gt;" style="text;strokeColor=#82b366;fillColor=#d5e8d4;align=left;verticalAlign=top;spacingLeft=4;spacingRight=4;overflow=hidden;rotatable=0;points=[[0,0.5],[1,0.5]];portConstraint=eastwest;whiteSpace=wrap;html=1;" parent="BIKRHAEgS_KkoJdKM_LC-9" vertex="1">
          <mxGeometry y="26" width="210" height="44" as="geometry" />
        </mxCell>
        <mxCell id="BIKRHAEgS_KkoJdKM_LC-12" value="+ getWeather(): void&lt;div&gt;- renderWeather($data, $city): void&lt;/div&gt;" style="text;strokeColor=#82b366;fillColor=#d5e8d4;align=left;verticalAlign=top;spacingLeft=4;spacingRight=4;overflow=hidden;rotatable=0;points=[[0,0.5],[1,0.5]];portConstraint=eastwest;whiteSpace=wrap;html=1;" parent="BIKRHAEgS_KkoJdKM_LC-9" vertex="1">
          <mxGeometry y="70" width="210" height="50" as="geometry" />
        </mxCell>
        <mxCell id="BIKRHAEgS_KkoJdKM_LC-13" value="WeatherView" style="swimlane;fontStyle=1;align=center;verticalAlign=top;childLayout=stackLayout;horizontal=1;startSize=26;horizontalStack=0;resizeParent=1;resizeParentMax=0;resizeLast=0;collapsible=1;marginBottom=0;whiteSpace=wrap;html=1;fillColor=#d5e8d4;strokeColor=#82b366;" parent="WIyWlLk6GJQsqaUBKTNV-1" vertex="1">
          <mxGeometry x="360" y="960" width="170" height="78" as="geometry" />
        </mxCell>
        <mxCell id="BIKRHAEgS_KkoJdKM_LC-14" value="- apiUrl" style="text;strokeColor=#82b366;fillColor=#d5e8d4;align=left;verticalAlign=top;spacingLeft=4;spacingRight=4;overflow=hidden;rotatable=0;points=[[0,0.5],[1,0.5]];portConstraint=eastwest;whiteSpace=wrap;html=1;" parent="BIKRHAEgS_KkoJdKM_LC-13" vertex="1">
          <mxGeometry y="26" width="170" height="26" as="geometry" />
        </mxCell>
        <mxCell id="BIKRHAEgS_KkoJdKM_LC-16" value="+ fetchWeather($city): array" style="text;strokeColor=#82b366;fillColor=#d5e8d4;align=left;verticalAlign=top;spacingLeft=4;spacingRight=4;overflow=hidden;rotatable=0;points=[[0,0.5],[1,0.5]];portConstraint=eastwest;whiteSpace=wrap;html=1;" parent="BIKRHAEgS_KkoJdKM_LC-13" vertex="1">
          <mxGeometry y="52" width="170" height="26" as="geometry" />
        </mxCell>
        <mxCell id="BIKRHAEgS_KkoJdKM_LC-17" value="Weather" style="swimlane;fontStyle=1;align=center;verticalAlign=top;childLayout=stackLayout;horizontal=1;startSize=26;horizontalStack=0;resizeParent=1;resizeParentMax=0;resizeLast=0;collapsible=1;marginBottom=0;whiteSpace=wrap;html=1;fillColor=#d5e8d4;strokeColor=#82b366;" parent="WIyWlLk6GJQsqaUBKTNV-1" vertex="1">
          <mxGeometry x="720" y="960" width="210" height="52" as="geometry" />
        </mxCell>
        <mxCell id="BIKRHAEgS_KkoJdKM_LC-20" value="+ displayWeather($data, $city): void" style="text;strokeColor=#82b366;fillColor=#d5e8d4;align=left;verticalAlign=top;spacingLeft=4;spacingRight=4;overflow=hidden;rotatable=0;points=[[0,0.5],[1,0.5]];portConstraint=eastwest;whiteSpace=wrap;html=1;" parent="BIKRHAEgS_KkoJdKM_LC-17" vertex="1">
          <mxGeometry y="26" width="210" height="26" as="geometry" />
        </mxCell>
        <mxCell id="BIKRHAEgS_KkoJdKM_LC-21" value="" style="endArrow=open;html=1;endSize=12;startArrow=diamondThin;startSize=14;startFill=0;edgeStyle=orthogonalEdgeStyle;align=left;verticalAlign=bottom;rounded=0;exitX=0.116;exitY=1.006;exitDx=0;exitDy=0;exitPerimeter=0;entryX=0.5;entryY=0;entryDx=0;entryDy=0;" parent="WIyWlLk6GJQsqaUBKTNV-1" source="BIKRHAEgS_KkoJdKM_LC-12" target="BIKRHAEgS_KkoJdKM_LC-13" edge="1">
          <mxGeometry x="-1" y="3" relative="1" as="geometry">
            <mxPoint x="510" y="930" as="sourcePoint" />
            <mxPoint x="670" y="930" as="targetPoint" />
          </mxGeometry>
        </mxCell>
        <mxCell id="BIKRHAEgS_KkoJdKM_LC-22" value="" style="endArrow=open;html=1;endSize=12;startArrow=diamondThin;startSize=14;startFill=0;edgeStyle=orthogonalEdgeStyle;align=left;verticalAlign=bottom;rounded=0;exitX=0.833;exitY=1;exitDx=0;exitDy=0;exitPerimeter=0;entryX=0.5;entryY=0;entryDx=0;entryDy=0;" parent="WIyWlLk6GJQsqaUBKTNV-1" source="BIKRHAEgS_KkoJdKM_LC-12" target="BIKRHAEgS_KkoJdKM_LC-17" edge="1">
          <mxGeometry x="-1" y="3" relative="1" as="geometry">
            <mxPoint x="510" y="930" as="sourcePoint" />
            <mxPoint x="670" y="930" as="targetPoint" />
          </mxGeometry>
        </mxCell>
      </root>
    </mxGraphModel>
  </diagram>
</mxfile>
